<?xml version="1.0" encoding="UTF-8"?>
<svg version="1.1" xmlns="http://www.w3.org/2000/svg" width="1200" height="1200">
<path d="M0 0 C396 0 792 0 1200 0 C1200 396 1200 792 1200 1200 C804 1200 408 1200 0 1200 C0 804 0 408 0 0 Z " fill="#FEFEFE" transform="translate(0,0)"/>
<path d="M0 0 C0.82685303 -0.00990967 1.65370605 -0.01981934 2.50561523 -0.0300293 C11.24914219 0.09120265 18.55752124 3.06866462 26.25 7 C26.93521729 7.34659668 27.62043457 7.69319336 28.32641602 8.05029297 C33.93580015 10.93059782 39.36579668 14.07476104 44.77514648 17.31176758 C51.05320344 21.0612114 57.42196445 24.63376749 63.8125 28.1875 C73.17897293 33.40299496 82.46976487 38.7310551 91.70239258 44.17993164 C96.88538255 47.22717009 102.0975109 50.19063688 107.390625 53.04296875 C125.93729734 63.06102829 140.72882921 72.59002366 147.75 93.4375 C148.70340896 96.63122235 148.88223975 99.51310304 148.89717102 102.8422699 C148.90790398 104.48833977 148.90790398 104.48833977 148.91885376 106.16766357 C148.92154266 107.36715637 148.92423157 108.56664917 148.92700195 109.80249023 C148.93357315 111.06966385 148.94014435 112.33683746 148.94691467 113.64241028 C148.96791977 117.84362531 148.97831893 122.04484052 148.98828125 126.24609375 C148.99233119 127.69700705 148.99644818 129.14792016 149.00063133 130.59883308 C149.01968119 137.42201049 149.03390839 144.24517713 149.0422433 151.068376 C149.05199243 158.91799403 149.07825155 166.76732832 149.11874419 174.6168465 C149.14903315 180.69946021 149.16372451 186.78199324 149.16702431 192.86468083 C149.16936176 196.4897183 149.17814875 200.11445264 149.20348549 203.73940849 C149.23137831 207.79576928 149.22689637 211.851508 149.2199707 215.90795898 C149.23918579 217.67987106 149.23918579 217.67987106 149.25878906 219.48757935 C149.17419591 233.16559899 144.89721782 246.23197204 135.82421875 256.6484375 C129.36024595 262.80808013 121.46256731 267.05172662 113.75 271.4375 C112.68265625 272.04980469 111.6153125 272.66210938 110.515625 273.29296875 C108.30296032 274.55850501 106.08796361 275.81996958 103.87109375 277.078125 C98.5129751 280.13213015 93.19792879 283.2602353 87.875 286.375 C80.58859949 290.63599072 73.28400054 294.85309556 65.91113281 298.96240234 C59.77085581 302.39799602 53.69927779 305.94935776 47.625 309.5 C46.58698242 310.10505371 45.54896484 310.71010742 44.47949219 311.33349609 C40.1481358 313.85931574 35.81987166 316.38780106 31.5234375 318.97265625 C17.68429735 327.24537022 3.71566912 331.27126442 -12.34765625 327.625 C-16.25736155 326.54351034 -19.84279669 324.92460623 -23.4375 323.0625 C-24.11111572 322.71944824 -24.78473145 322.37639648 -25.47875977 322.02294922 C-38.65533481 315.21666415 -51.3915966 307.56080293 -64.15258789 300.01391602 C-68.77825502 297.28407694 -73.43707286 294.62133162 -78.125 292 C-92.96223675 283.70351485 -107.61137998 275.07822193 -122.25 266.4375 C-119.50910994 263.49609551 -116.89740319 261.47268738 -113.375 259.546875 C-112.40288574 259.00981934 -111.43077148 258.47276367 -110.42919922 257.91943359 C-109.38006348 257.34789551 -108.33092773 256.77635742 -107.25 256.1875 C-105.00192081 254.94654965 -102.75455284 253.70431019 -100.5078125 252.4609375 C-99.92323273 252.13827911 -99.33865295 251.81562073 -98.73635864 251.48318481 C-91.82568533 247.66353403 -84.97550309 243.73870823 -78.125 239.8125 C-76.93492438 239.13113504 -75.74482087 238.44981877 -74.5546875 237.76855469 C-72.8840625 236.81190918 -72.8840625 236.81190918 -71.1796875 235.8359375 C-70.14038086 235.24522461 -69.10107422 234.65451172 -68.03027344 234.04589844 C-66.35945697 233.07932495 -64.70133509 232.08951217 -63.07128906 231.05566406 C-60.58548157 229.49082348 -58.7964458 228.44540677 -55.8203125 228.40234375 C-52.03781358 229.92569058 -48.62069031 231.90985845 -45.125 234 C-44.31893311 234.47381104 -43.51286621 234.94762207 -42.68237305 235.43579102 C-39.86637201 237.09438015 -37.05771146 238.76491717 -34.25 240.4375 C-30.720083 242.53790457 -27.18994082 244.63792049 -23.65869141 246.73608398 C-21.3002746 248.13750653 -18.94482074 249.54372779 -16.59130859 250.95336914 C-14.43613619 252.23814081 -12.27340797 253.51035328 -10.10205078 254.76757812 C-8.36535846 255.78443958 -6.64831557 256.83733317 -4.97216797 257.95117188 C-2.79270675 259.40436366 -2.79270675 259.40436366 0.75 260.4375 C4.00066604 259.61840025 6.49210144 257.92469879 9.25 256.0625 C10.93546542 255.00664232 12.62170004 253.95201177 14.30859375 252.8984375 C15.19401855 252.33092773 16.07944336 251.76341797 16.99169922 251.17871094 C21.68700662 248.214741 26.50545283 245.46507145 31.3125 242.6875 C33.34022123 241.50455307 35.36755808 240.32094703 37.39453125 239.13671875 C45.13815514 234.62353405 52.90272885 230.14683859 60.67016602 225.67480469 C61.68135498 225.0924707 62.69254395 224.51013672 63.734375 223.91015625 C65.21067383 223.06155029 65.21067383 223.06155029 66.71679688 222.19580078 C68.85529353 220.95614746 70.98613976 219.70325022 73.11132812 218.44091797 C74.19349609 217.79912598 75.27566406 217.15733398 76.390625 216.49609375 C77.37063477 215.91013428 78.35064453 215.3241748 79.36035156 214.72045898 C81.75 213.4375 81.75 213.4375 83.75 213.4375 C84.10691596 200.86760805 84.34887297 188.3011362 84.44690418 175.7264061 C84.49599148 169.88575771 84.58359514 164.05114876 84.76147461 158.21289062 C84.93193838 152.57030313 84.99827793 146.93492894 84.99460411 141.28986359 C85.01109473 139.14445547 85.06418494 136.99898731 85.15552711 134.85546112 C85.62912661 124.85571515 85.62912661 124.85571515 82.75 115.4375 C77.54741243 110.23315096 70.8756037 107.29328771 64.17178917 104.47715378 C61.18521986 103.19504462 58.48428197 101.66809569 55.703125 99.9921875 C54.91099609 99.54101562 54.11886719 99.08984375 53.30273438 98.625 C46.25700896 94.60911579 39.23248914 90.56238387 32.25 86.4375 C30.89071646 85.63916717 29.53133989 84.84099272 28.171875 84.04296875 C25.79386464 82.64629861 23.42196956 81.24083635 21.05664062 79.82275391 C18.21205334 78.11863001 15.35688098 76.43341367 12.5 74.75 C11.60603516 74.20794922 10.71207031 73.66589844 9.79101562 73.10742188 C8.94732422 72.61435547 8.10363281 72.12128906 7.234375 71.61328125 C6.48897461 71.16895752 5.74357422 70.72463379 4.97558594 70.2668457 C2.07485505 69.18591297 0.6854529 69.49487492 -2.25 70.4375 C-4.19673051 71.39214003 -6.1061062 72.42466728 -7.984375 73.5078125 C-9.66454712 74.47195068 -9.66454712 74.47195068 -11.37866211 75.45556641 C-11.9692038 75.79920227 -12.55974548 76.14283813 -13.16818237 76.49688721 C-15.01886685 77.5734753 -16.87519728 78.63975657 -18.73266602 79.70458984 C-25.04633838 83.33764697 -31.29723514 87.05532538 -37.48046875 90.90625 C-38.62199839 91.61193276 -39.76359852 92.31750151 -40.90527344 93.02294922 C-43.06073695 94.36233796 -45.20636591 95.71771061 -47.34082031 97.09033203 C-48.30987305 97.69216309 -49.27892578 98.29399414 -50.27734375 98.9140625 C-51.12031006 99.45111816 -51.96327637 99.98817383 -52.83178711 100.54150391 C-55.25 101.4375 -55.25 101.4375 -57.83691406 100.71337891 C-58.63323242 100.29233887 -59.42955078 99.87129883 -60.25 99.4375 C-60.85690674 99.13295898 -61.46381348 98.82841797 -62.08911133 98.51464844 C-62.6642749 98.1952832 -63.23943848 97.87591797 -63.83203125 97.546875 C-64.50419678 97.1744165 -65.1763623 96.80195801 -65.86889648 96.41821289 C-66.59278564 96.01207764 -67.3166748 95.60594238 -68.0625 95.1875 C-68.83730713 94.75493896 -69.61211426 94.32237793 -70.41040039 93.87670898 C-79.09671751 89.00210908 -87.68969766 83.96762607 -96.27734375 78.921875 C-100.16473377 76.64208076 -104.07090864 74.40327058 -108.00390625 72.203125 C-108.89150635 71.70288818 -109.77910645 71.20265137 -110.69360352 70.68725586 C-112.36212795 69.74917895 -114.03562258 68.81987261 -115.71459961 67.90063477 C-117.60948678 66.82988304 -119.43872271 65.64430621 -121.25 64.4375 C-121.25 63.4475 -121.25 62.4575 -121.25 61.4375 C-120.68079834 61.13046143 -120.11159668 60.82342285 -119.52514648 60.50708008 C-116.90996631 59.09285906 -114.29873558 57.67149023 -111.6875 56.25 C-110.79224609 55.76724609 -109.89699219 55.28449219 -108.97460938 54.78710938 C-104.91764893 52.57287089 -101.03648991 50.36670031 -97.34765625 47.57421875 C-94.25 45.4375 -94.25 45.4375 -90.25 45.4375 C-90.25 44.7775 -90.25 44.1175 -90.25 43.4375 C-86.15679504 40.34263772 -82.03112913 38.34995165 -77.25 36.4375 C-75.7959375 35.8496875 -75.7959375 35.8496875 -74.3125 35.25 C-73.631875 34.981875 -72.95125 34.71375 -72.25 34.4375 C-72.25 33.7775 -72.25 33.1175 -72.25 32.4375 C-68.26811282 30.71982318 -64.28520597 29.02712659 -60.25 27.4375 C-60.25 26.7775 -60.25 26.1175 -60.25 25.4375 C-59.280625 25.045625 -58.31125 24.65375 -57.3125 24.25 C-49.17188708 20.74027467 -41.74185707 15.92933726 -34.265625 11.20703125 C-31.25 9.4375 -31.25 9.4375 -28.546875 8.38671875 C-26.21884409 7.59865728 -26.21884409 7.59865728 -24.77734375 5.94921875 C-18.79362984 0.02671931 -7.89013562 0.04909809 0 0 Z " fill="#4C4C4C" transform="translate(250.25,424.5625)"/>
<path d="M0 0 C2.0517175 1.69240657 4.07321035 3.42213562 6.0625 5.1875 C6.82916992 5.86570801 6.82916992 5.86570801 7.61132812 6.55761719 C23.78091745 21.09810521 34.99437091 41.07783731 40.0625 62.1875 C40.24296875 62.92436035 40.4234375 63.6612207 40.609375 64.42041016 C49.46659193 101.84664014 43.56145754 139.97616842 24.17578125 172.98828125 C20.95074198 177.87054957 17.17488907 182.04347717 13.0625 186.1875 C11.7321875 187.5796875 11.7321875 187.5796875 10.375 189 C2.77678571 196.1875 2.77678571 196.1875 0.0625 196.1875 C0.0625 196.8475 0.0625 197.5075 0.0625 198.1875 C-1.89347184 199.58462274 -3.9034094 200.90677629 -5.9375 202.1875 C-6.9275 202.909375 -7.9175 203.63125 -8.9375 204.375 C-12.0586802 206.26071304 -14.33780836 206.84467222 -17.9375 207.1875 C-17.9375 207.8475 -17.9375 208.5075 -17.9375 209.1875 C-23.1582797 210.66994362 -28.38457698 212.12878153 -33.62109375 213.5546875 C-35.58301524 214.09065931 -37.54186694 214.63784862 -39.5 215.1875 C-65.62030307 221.9787788 -92.85074998 214.76241607 -115.6015625 201.65234375 C-138.75922457 186.96400332 -153.94766737 161.9942233 -160.55078125 135.75 C-161.09207508 133.2377355 -161.52400309 130.72386052 -161.9375 128.1875 C-162.123125 127.22972656 -162.30875 126.27195312 -162.5 125.28515625 C-168.44710061 89.89164779 -162.74522468 53.34375023 -142.9375 23.1875 C-126.45569686 0.9935918 -104.49510498 -14.18475539 -76.94140625 -18.44482422 C-49.94454239 -21.74921929 -21.96605968 -16.71953799 0 0 Z " fill="#4D4D4D" transform="translate(1029.9375,545.8125)"/>
<path d="M0 0 C22.77084623 -0.04667751 45.53798498 0.07736413 68.30780983 0.28753281 C73.76255378 0.33784339 79.21727103 0.38433033 84.67211914 0.421875 C90.04191437 0.45889397 95.41155553 0.50521742 100.78121758 0.55806351 C102.80039248 0.57641785 104.81959918 0.59159352 106.83882332 0.60334396 C117.05730719 0.66516318 126.97518341 0.7537826 137 3 C138.85238281 3.40798828 138.85238281 3.40798828 140.7421875 3.82421875 C158.23253713 8.64387868 175.44663961 17.84036768 184.7578125 34.0625 C186.25502097 37.0135196 187.67110118 39.96977212 189 43 C189.34289062 43.75796875 189.68578125 44.5159375 190.0390625 45.296875 C195.99645137 62.05505832 194.62484137 82.07952928 187.15234375 98.12109375 C180.45841883 111.43057875 170.3783077 122.19096884 157 129 C156.34 129 155.68 129 155 129 C161.38514245 144.51663576 167.951601 159.95348947 174.5625 175.375 C174.9710321 176.32848328 175.37956421 177.28196655 175.80047607 178.26434326 C176.9716075 180.99690492 178.14375954 183.72902581 179.31640625 186.4609375 C179.67329025 187.29326904 180.03017426 188.12560059 180.39787292 188.9831543 C180.72620621 189.74716553 181.05453949 190.51117676 181.39282227 191.29833984 C181.68020767 191.96763519 181.96759308 192.63693054 182.26368713 193.32650757 C182.80913716 194.56620679 183.39429877 195.78859754 184 197 C185.81227974 197.63732925 185.81227974 197.63732925 188 198.03515625 C188.804375 198.20466797 189.60875 198.37417969 190.4375 198.54882812 C191.283125 198.71833984 192.12875 198.88785156 193 199.0625 C194.66732585 199.40435263 196.33403237 199.74924475 198 200.09765625 C198.7425 200.24726807 199.485 200.39687988 200.25 200.55102539 C202 201 202 201 203 202 C203 211.24 203 220.48 203 230 C184.52 230 166.04 230 147 230 C142 217 137 204 132 191 C131.0284277 188.8374681 130.05681052 186.67494703 129.078125 184.515625 C126.83204463 179.27477081 124.92327868 173.89563434 122.94628906 168.54882812 C120.64618877 162.35351154 118.30967591 156.17170051 115.98364258 149.98608398 C115.42519653 148.49830444 115.42519653 148.49830444 114.85546875 146.98046875 C114.52184326 146.09254639 114.18821777 145.20462402 113.84448242 144.28979492 C113.19832977 142.53776668 112.59051809 140.77155428 112 139 C98.14 139 84.28 139 70 139 C70 158.47 70 177.94 70 198 C72.31 198 74.62 198 77 198 C79.44702148 198.3671875 79.44702148 198.3671875 81.62109375 198.875 C82.69121704 199.11863281 82.69121704 199.11863281 83.78295898 199.3671875 C84.65895752 199.57601562 85.53495605 199.78484375 86.4375 200 C89.263125 200.66 92.08875 201.32 95 202 C95 211.24 95 220.48 95 230 C63.65 230 32.3 230 0 230 C0 220.76 0 211.52 0 202 C7.96249793 200.16250048 15.96004422 198.46181014 24 197 C24 142.88 24 88.76 24 33 C16.74 31.68 9.48 30.36 2 29 C1.34 28.67 0.68 28.34 0 28 C0 18.76 0 9.52 0 0 Z " fill="#4D4D4C" transform="translate(643,530)"/>
<path d="M0 0 C15.80491567 -0.09079472 31.60961982 -0.16426655 47.41472149 -0.20724869 C54.75566223 -0.22774917 62.09642773 -0.25562545 69.43725586 -0.30175781 C75.84619034 -0.34201413 82.25499774 -0.36752333 88.66405517 -0.37635398 C92.04806574 -0.38150437 95.43142889 -0.39553836 98.81537437 -0.42292023 C126.96592154 -0.64140185 152.51888706 1.82860616 174.4453125 21.39453125 C176.74304103 23.76731122 178.65695407 26.36358249 180.54296875 29.0703125 C181.97204792 31.08372936 181.97204792 31.08372936 183.97314453 32.81079102 C186.17867436 35.19298639 186.93105923 36.8804503 187.88671875 39.95703125 C188.18513672 40.90513672 188.48355469 41.85324219 188.79101562 42.83007812 C189.08685547 43.81427734 189.38269531 44.79847656 189.6875 45.8125 C190.14866211 47.27139648 190.14866211 47.27139648 190.61914062 48.75976562 C196.78391193 68.68398272 195.72099589 89.48454879 186.0625 108.0625 C183.40627987 112.55130611 180.60857758 117.20664586 177 121 C176.34 121 175.68 121 175 121 C174.77054688 121.58007812 174.54109375 122.16015625 174.3046875 122.7578125 C168.05585948 133.49681635 151.58346835 138.8114975 140.25 141.8125 C130.35556232 144.39982702 121.05093724 145.14592527 110.84375 145.09765625 C109.82958008 145.09664917 108.81541016 145.09564209 107.77050781 145.09460449 C104.01366023 145.08940694 100.25682887 145.07544589 96.5 145.0625 C88.085 145.041875 79.67 145.02125 71 145 C71 162.16 71 179.32 71 197 C74.63 197.33 78.26 197.66 82 198 C86.29 198.99 90.58 199.98 95 201 C95 210.24 95 219.48 95 229 C63.65 229 32.3 229 0 229 C0 219.76 0 210.52 0 201 C2.660625 200.360625 5.32125 199.72125 8.0625 199.0625 C8.8862915 198.86277588 9.71008301 198.66305176 10.55883789 198.45727539 C11.23164795 198.29735107 11.90445801 198.13742676 12.59765625 197.97265625 C13.27320557 197.81031494 13.94875488 197.64797363 14.64477539 197.48071289 C17.73822507 196.84932464 20.87450478 196.44649932 24 196 C24 141.88 24 87.76 24 32 C16.74 30.68 9.48 29.36 2 28 C1.34 27.67 0.68 27.34 0 27 C0 18.09 0 9.18 0 0 Z " fill="#4D4D4D" transform="translate(434,531)"/>
<path d="M0 0 C5.20819829 4.57515762 9.1269309 9.1536431 12.55859375 15.17578125 C13.07292969 16.07039062 13.58726562 16.965 14.1171875 17.88671875 C28.75565781 45.11938422 28.10046855 82.09957773 19.55859375 111.17578125 C15.16279768 125.65695666 7.26744278 138.61339856 -5.8828125 146.671875 C-8.36189965 147.9793122 -10.85169889 149.10585521 -13.44140625 150.17578125 C-14.15167969 150.49546875 -14.86195313 150.81515625 -15.59375 151.14453125 C-21.48610715 153.38134873 -27.33989586 153.45369583 -33.56640625 153.48828125 C-34.41380371 153.49384033 -35.26120117 153.49939941 -36.13427734 153.50512695 C-44.51732939 153.40943748 -51.05388264 151.65315614 -58.56640625 147.86328125 C-59.72398437 147.28964844 -60.8815625 146.71601562 -62.07421875 146.125 C-75.43888164 138.3883796 -83.08312021 124.00940193 -87.52734375 109.62890625 C-95.80383017 78.36217979 -94.53193489 40.63741984 -78.44140625 12.17578125 C-71.83299581 1.30022578 -60.66284169 -6.68231692 -48.44140625 -10.13671875 C-31.44339146 -13.19456268 -14.02757574 -10.48140459 0 0 Z " fill="#FDFDFD" transform="translate(1003.44140625,573.82421875)"/>
<path d="M0 0 C3.64405669 1.82202834 7.20130402 3.75279354 10.75 5.75 C11.4404541 6.13849121 12.1309082 6.52698242 12.84228516 6.92724609 C20.07784311 11.01663543 27.25134112 15.21136028 34.42407227 19.40966797 C42.15793628 23.93435678 49.91874062 28.41054922 57.6875 32.875 C65.32256606 37.26492577 72.8887028 41.72254239 80.359375 46.38671875 C83.79310104 48.4845425 87.30671459 50.40232044 90.8515625 52.3046875 C101.36454218 57.96552271 111.84145486 63.72110024 122 70 C120.55420026 74.33739922 117.28170134 75.29384425 113.4375 77.3125 C111.79418093 78.19924812 110.15233064 79.0887219 108.51171875 79.98046875 C107.62532715 80.46177246 106.73893555 80.94307617 105.82568359 81.43896484 C100.74817161 84.24401164 95.75243158 87.18879016 90.75 90.125 C84.2905901 93.91094034 77.82911747 97.68830055 71.3125 101.375 C66.91972049 103.86992817 62.60320839 106.45834479 58.3125 109.125 C53.72070045 111.97356547 49.08055083 114.63390276 44.3203125 117.1875 C39.80598501 119.65179171 35.34042477 122.19838579 30.875 124.75 C29.97346191 125.26506104 29.07192383 125.78012207 28.14306641 126.31079102 C21.47199419 130.13311901 14.83686072 134.01385583 8.24169922 137.96582031 C5.51446109 139.58822592 3.02100187 140.99299938 0 142 C0 95.14 0 48.28 0 0 Z " fill="#2655A2" transform="translate(101,518)"/>
<path d="M0 0 C9.36151754 7.545571 15.37977983 17.72299582 17.4375 29.6875 C17.71866868 32.77730297 17.77207841 35.83611471 17.75 38.9375 C17.74436035 39.771604 17.7387207 40.60570801 17.73291016 41.46508789 C17.48309569 54.24643679 13.53192253 65.04586621 6.4375 75.6875 C5.7775 75.6875 5.1175 75.6875 4.4375 75.6875 C4.4375 76.3475 4.4375 77.0075 4.4375 77.6875 C-3.66858805 85.52338512 -14.88119664 89.0796223 -25.9375 89 C-26.6812085 88.99871094 -27.42491699 88.99742187 -28.19116211 88.99609375 C-33.82143497 88.89767316 -38.36519177 87.95541632 -43.5625 85.6875 C-43.5625 85.0275 -43.5625 84.3675 -43.5625 83.6875 C-44.92375 83.2853125 -44.92375 83.2853125 -46.3125 82.875 C-49.29241834 81.78618368 -51.24840359 80.82358899 -53.5625 78.6875 C-53.5625 78.0275 -53.5625 77.3675 -53.5625 76.6875 C-54.5525 76.3575 -55.5425 76.0275 -56.5625 75.6875 C-58.02962889 73.5607547 -59.30833413 71.49665427 -60.5625 69.25 C-60.90539062 68.67056641 -61.24828125 68.09113281 -61.6015625 67.49414062 C-66.72086143 58.47674957 -68.05382776 49.83811847 -67.9375 39.5625 C-67.94910156 38.52996094 -67.96070313 37.49742187 -67.97265625 36.43359375 C-67.94847827 30.10702198 -67.13005052 25.4660974 -64.5625 19.6875 C-64.11414488 18.35777758 -63.67546432 17.02472255 -63.25 15.6875 C-60.18691257 7.63505365 -54.64322082 2.33422304 -47.5625 -2.3125 C-46.69625 -2.9003125 -46.69625 -2.9003125 -45.8125 -3.5 C-31.94497982 -12.2314016 -12.56907941 -9.35469189 0 0 Z " fill="#4E4E4E" transform="translate(588.5625,423.3125)"/>
<path d="M0 0 C0.82290527 0.00202423 1.64581055 0.00404846 2.49365234 0.00613403 C3.33331543 0.00517731 4.17297852 0.00422058 5.03808594 0.00323486 C6.81689529 0.00255306 8.59570712 0.00440737 10.37451172 0.00857544 C13.10699011 0.01392371 15.83930411 0.00863048 18.57177734 0.00222778 C20.29573604 0.00288856 22.01969464 0.00416973 23.74365234 0.00613403 C24.56655762 0.0041098 25.38946289 0.00208557 26.23730469 0 C32.0037018 0.02399599 32.0037018 0.02399599 33.11865234 1.13894653 C33.19091736 2.99182155 33.20246454 4.84728531 33.18115234 6.70144653 C33.17212891 7.7133606 33.16310547 8.72527466 33.15380859 9.76785278 C33.14220703 10.55031372 33.13060547 11.33277466 33.11865234 12.13894653 C29.81865234 12.46894653 26.51865234 12.79894653 23.11865234 13.13894653 C23.11865234 40.19894653 23.11865234 67.25894653 23.11865234 95.13894653 C16.84865234 95.13894653 10.57865234 95.13894653 4.11865234 95.13894653 C-2.09858973 87.87385467 -2.09858973 87.87385467 -3.67822266 84.51394653 C-5.89938661 80.02324482 -8.4993144 75.85760479 -11.19384766 71.63894653 C-11.98223268 70.35808078 -12.77001566 69.07684421 -13.55712891 67.79519653 C-15.49803242 64.68181873 -17.59523015 61.71160247 -19.74902344 58.74295044 C-21.2523089 56.61345809 -22.55716398 54.38320334 -23.88134766 52.13894653 C-25.18471742 50.17452475 -26.49772324 48.21647207 -27.81884766 46.26394653 C-30.69840761 41.97107314 -33.37247851 37.654911 -35.88134766 33.13894653 C-36.37634766 32.64394653 -36.37634766 32.64394653 -36.88134766 32.13894653 C-37.21134766 48.63894653 -37.54134766 65.13894653 -37.88134766 82.13894653 C-33.92134766 82.46894653 -29.96134766 82.79894653 -25.88134766 83.13894653 C-25.88134766 87.09894653 -25.88134766 91.05894653 -25.88134766 95.13894653 C-38.75134766 95.13894653 -51.62134766 95.13894653 -64.88134766 95.13894653 C-64.88134766 91.17894653 -64.88134766 87.21894653 -64.88134766 83.13894653 C-59.93134766 82.64394653 -59.93134766 82.64394653 -54.88134766 82.13894653 C-55.21134766 59.69894653 -55.54134766 37.25894653 -55.88134766 14.13894653 C-60.33634766 13.14894653 -60.33634766 13.14894653 -64.88134766 12.13894653 C-64.88134766 8.50894653 -64.88134766 4.87894653 -64.88134766 1.13894653 C-55.0122765 -0.35506133 -44.60128407 -1.70311702 -34.88134766 1.13894653 C-28.11343916 6.27638765 -24.84898962 14.37650307 -21.40771484 21.93191528 C-19.1340122 26.70916383 -16.28910181 31.04220269 -13.38134766 35.45144653 C-12.40819995 36.98333857 -11.43799956 38.51710811 -10.47119141 40.05300903 C-8.30005654 43.48045259 -6.1235974 46.90447382 -3.94384766 50.32644653 C-3.41791016 51.15531372 -2.89197266 51.98418091 -2.35009766 52.83816528 C-1.36015383 54.38890176 -0.35989596 55.93309619 0.64990234 57.47097778 C1.34599609 58.54412231 1.34599609 58.54412231 2.05615234 59.63894653 C2.45705078 60.24738403 2.85794922 60.85582153 3.27099609 61.48269653 C4.11865234 63.13894653 4.11865234 63.13894653 4.11865234 66.13894653 C4.77865234 66.13894653 5.43865234 66.13894653 6.11865234 66.13894653 C6.11865234 48.97894653 6.11865234 31.81894653 6.11865234 14.13894653 C1.16865234 13.64394653 1.16865234 13.64394653 -3.88134766 13.13894653 C-4.87134766 12.47894653 -5.86134766 11.81894653 -6.88134766 11.13894653 C-7.20947266 8.79129028 -7.20947266 8.79129028 -7.13134766 6.07644653 C-7.11587891 5.17796997 -7.10041016 4.27949341 -7.08447266 3.35379028 C-6.67434539 -1.11817438 -3.86422391 0.01608038 0 0 Z " fill="#4F4F4F" transform="translate(678.88134765625,415.8610534667969)"/>
<path d="M0 0 C7.8375 -0.103125 15.675 -0.20625 23.75 -0.3125 C26.19889648 -0.35802002 28.64779297 -0.40354004 31.17089844 -0.45043945 C51.72941873 -0.67287011 51.72941873 -0.67287011 61 5 C62.15471802 5.63881104 62.15471802 5.63881104 63.33276367 6.29052734 C70.78642553 10.60885308 74.37676633 20.13029898 77 28 C77.80537268 40.99158556 77.3505693 52.30083308 69 63 C66.875 65.375 66.875 65.375 65 67 C64.34 67 63.68 67 63 67 C63 67.66 63 68.32 63 69 C50.07141916 76.75714851 34.17882071 75.25664026 19.625 75.125 C9.910625 75.063125 9.910625 75.063125 0 75 C0 50.25 0 25.5 0 0 Z " fill="#FEFEFE" transform="translate(505,566)"/>
<path d="M0 0 C25.70552589 -2.51493386 25.70552589 -2.51493386 32.24121094 1.3125 C35.64731718 4.84748593 37.35188058 9.18474062 39.06347656 13.72460938 C40.6245086 17.51731495 42.88547627 20.82941736 45.125 24.25 C45.95376763 25.57560907 46.7806302 26.90241131 47.60546875 28.23046875 C49.80783243 31.72844516 52.11041575 35.14632331 54.4375 38.5625 C56.4845082 41.58602509 58.31920645 44.40083131 59.625 47.8125 C61.13870814 51.3215507 63.0075467 53.56275335 65.59765625 56.32421875 C67 58 67 58 69 62 C69.33 45.5 69.66 29 70 12 C67.03 12 64.06 12 61 12 C60.01 11.67 59.02 11.34 58 11 C58 7.37 58 3.74 58 0 C71.2 0 84.4 0 98 0 C98 3.63 98 7.26 98 11 C94.7 11.66 91.4 12.32 88 13 C87.67 39.73 87.34 66.46 87 94 C80.73 94 74.46 94 68 94 C67.01 90.535 67.01 90.535 66 87 C65.34 87 64.68 87 64 87 C63.7525 86.278125 63.505 85.55625 63.25 84.8125 C61.88046785 81.73105265 60.14002978 79.5939755 58 77 C56.98569447 75.34200058 55.9873919 73.67416696 55 72 C51.34135951 66.07353394 47.5746697 60.3408206 43.328125 54.8203125 C41.72890667 52.62844267 40.43166585 50.30128702 39.1328125 47.921875 C37.18645117 44.61977233 34.91622301 41.5424401 32.68359375 38.4296875 C31.01618261 36.02335402 29.50622538 33.51037564 28 31 C27.67 47.17 27.34 63.34 27 80 C28.32 80 29.64 80 31 80 C31 80.66 31 81.32 31 82 C33.64 82 36.28 82 39 82 C39 85.96 39 89.92 39 94 C25.8 94 12.6 94 -1 94 C-1 90.04 -1 86.08 -1 82 C4.445 81.505 4.445 81.505 10 81 C9.67 58.56 9.34 36.12 9 13 C4.545 12.01 4.545 12.01 0 11 C0 7.37 0 3.74 0 0 Z " fill="#4D4C4C" transform="translate(718,417)"/>
<path d="M0 0 C21.87037722 0 21.87037722 0 29.88891602 0.15258789 C31.33964594 0.17588952 32.79054794 0.19019194 34.24145508 0.19555664 C46.31756699 0.24843285 59.49859432 1.36319895 68.609375 10.3359375 C76.32412904 19.56763755 77.86492201 29.2141079 77.1953125 41.05224609 C76.41024883 48.88129357 72.92271885 55.83877358 67 61 C53.23095732 70.68706985 36.19194722 69.26548258 20.1875 69.125 C10.1946875 69.063125 10.1946875 69.063125 0 69 C0 46.23 0 23.46 0 0 Z " fill="#FCFCFC" transform="translate(713,565)"/>
<path d="M0 0 C24.09 0 48.18 0 73 0 C73 8.58 73 17.16 73 26 C68.05 26 63.1 26 58 26 C58 22.04 58 18.08 58 14 C48.43 14 38.86 14 29 14 C29 22.58 29 31.16 29 40 C39.23 40 49.46 40 60 40 C60 44.29 60 48.58 60 53 C49.77 53 39.54 53 29 53 C29 61.91 29 70.82 29 80 C39.23 80 49.46 80 60 80 C60 76.37 60 72.74 60 69 C64.95 69 69.9 69 75 69 C75 77.58 75 86.16 75 95 C50.25 95 25.5 95 0 95 C0 91.04 0 87.08 0 83 C4.95 82.505 4.95 82.505 10 82 C10 59.23 10 36.46 10 13 C7.03 12.67 4.06 12.34 1 12 C0.67 8.04 0.34 4.08 0 0 Z " fill="#484A4A" transform="translate(822,416)"/>
<path d="M0 0 C1 1 1 1 1.11352539 3.22485352 C1.10567017 4.66235962 1.10567017 4.66235962 1.09765625 6.12890625 C1.09282227 7.68061523 1.09282227 7.68061523 1.08789062 9.26367188 C1.07532227 10.8965918 1.07532227 10.8965918 1.0625 12.5625 C1.05798828 13.65498047 1.05347656 14.74746094 1.04882812 15.87304688 C1.0369984 18.58205432 1.01906231 21.2910338 1 24 C-3.95 24 -8.9 24 -14 24 C-14.35807292 20.45182292 -14.71614583 16.90364583 -15.07421875 13.35546875 C-15.68471 9.89669214 -15.68471 9.89669214 -18.26953125 8.11328125 C-25.36389316 5.22073026 -33.93239278 4.76846327 -41.37890625 6.578125 C-47.89561263 9.38375201 -51.89000494 14.96706619 -55.1015625 21.10546875 C-58.96114816 31.2954963 -58.81541662 45.73266006 -54.875 55.8125 C-51.50124954 62.52209361 -48.1225315 67.53334584 -40.984375 70.41772461 C-37.48103649 71.44570964 -34.06014457 71.35304411 -30.4375 71.25 C-29.70853516 71.24484375 -28.97957031 71.2396875 -28.22851562 71.234375 C-23.96497235 71.17297384 -20.28523263 70.71420544 -16 70 C-15.34 65.38 -14.68 60.76 -14 56 C-9.05 56 -4.1 56 1 56 C1 63.59 1 71.18 1 79 C-12.98904051 85.99452025 -30.41528367 90.59511136 -46 85.8125 C-47.34996539 85.24647121 -48.68364654 84.64031922 -50 84 C-50.85078125 83.62488281 -51.7015625 83.24976563 -52.578125 82.86328125 C-57.58730101 80.54177716 -61.36795361 78.25468292 -65 74 C-65.845625 73.071875 -66.69125 72.14375 -67.5625 71.1875 C-76.56883381 60.00722355 -78.18803719 45.23959041 -77.25439453 31.32275391 C-76.08540297 20.64925511 -72.75426935 10.64142136 -65 3 C-64.05447266 2.05253906 -64.05447266 2.05253906 -63.08984375 1.0859375 C-45.37768108 -15.46419462 -19.16042801 -13.30585278 0 0 Z " fill="#4F4F4F" transform="translate(983,425)"/>
<path d="M0 0 C2.125 1.5234375 2.125 1.5234375 3.125 2.5234375 C3.21213831 4.23116108 3.23200007 5.94242399 3.22265625 7.65234375 C3.21782227 9.20405273 3.21782227 9.20405273 3.21289062 10.78710938 C3.20032227 12.4200293 3.20032227 12.4200293 3.1875 14.0859375 C3.18298828 15.17841797 3.17847656 16.27089844 3.17382812 17.39648438 C3.1619984 20.10549182 3.14406231 22.8144713 3.125 25.5234375 C-1.825 25.5234375 -6.775 25.5234375 -11.875 25.5234375 C-12.535 20.9034375 -13.195 16.2834375 -13.875 11.5234375 C-22.15947231 7.5666746 -30.2659543 5.56481381 -39.33984375 8.25390625 C-43.6434425 10.21737309 -46.08787528 12.66434173 -48.875 16.5234375 C-49.535 16.5234375 -50.195 16.5234375 -50.875 16.5234375 C-50.99875 17.0803125 -51.1225 17.6371875 -51.25 18.2109375 C-51.875 20.5234375 -51.875 20.5234375 -52.875 22.8984375 C-56.98281766 33.68145886 -56.00734381 48.00431706 -52.203125 58.70703125 C-49.21033004 65.05351702 -45.43295433 69.3102576 -38.83959961 71.95214844 C-35.34344832 72.96879986 -31.92747936 72.91627037 -28.3125 72.8359375 C-27.21905273 72.84077148 -27.21905273 72.84077148 -26.10351562 72.84570312 C-21.32751066 72.79841595 -18.71330528 72.13620593 -13.875 70.5234375 C-13.215 66.2334375 -12.555 61.9434375 -11.875 57.5234375 C-6.925 57.5234375 -1.975 57.5234375 3.125 57.5234375 C3.125 65.1134375 3.125 72.7034375 3.125 80.5234375 C-12.46355405 88.21379083 -29.41677911 91.72592923 -46.375 86.5859375 C-48.96426937 85.67380852 -51.42193191 84.74997155 -53.875 83.5234375 C-53.875 82.8634375 -53.875 82.2034375 -53.875 81.5234375 C-54.78121094 81.28625 -55.68742187 81.0490625 -56.62109375 80.8046875 C-64.07174112 77.8709392 -68.67520502 69.09879122 -71.91015625 62.0625 C-77.76228789 46.66215357 -75.99327958 28.55329681 -69.875 13.5234375 C-68.1884169 10.43284019 -66.35288877 8.00798726 -63.875 5.5234375 C-63.1325 4.6571875 -62.39 3.7909375 -61.625 2.8984375 C-44.23215148 -12.12265895 -18.98791868 -12.22863241 0 0 Z " fill="#4F4F4F" transform="translate(508.875,423.4765625)"/>
<path d="M0 0 C27.72 0 55.44 0 84 0 C84 8.58 84 17.16 84 26 C79.05 26 74.1 26 69 26 C69 22.37 69 18.74 69 15 C63.06 15 57.12 15 51 15 C51 37.11 51 59.22 51 82 C54.3 82.33 57.6 82.66 61 83 C61 86.96 61 90.92 61 95 C48.13 95 35.26 95 22 95 C22 91.04 22 87.08 22 83 C26.95 82.505 26.95 82.505 32 82 C32 59.89 32 37.78 32 15 C26.39 15 20.78 15 15 15 C15.020625 16.44375 15.04125 17.8875 15.0625 19.375 C15.125 23.75 15.125 23.75 14 26 C9.38 26 4.76 26 0 26 C0 17.42 0 8.84 0 0 Z " fill="#4F4F4F" transform="translate(990,416)"/>
<path d="M0 0 C6.0733545 3.80871384 10.01002569 9.84100496 12.18359375 16.578125 C14.47612167 29.00389762 14.53089895 43.63423394 8.84375 55.15625 C6.40625 58.21875 6.40625 58.21875 3.84375 60.15625 C2.544375 61.27 2.544375 61.27 1.21875 62.40625 C-2.7750103 65.34902075 -6.12651619 65.34436842 -10.96875 65.40625 C-12.17144531 65.43203125 -13.37414062 65.4578125 -14.61328125 65.484375 C-19.45603572 65.03587293 -22.64138528 63.59463611 -26.16796875 60.24609375 C-26.99748047 59.18068359 -26.99748047 59.18068359 -27.84375 58.09375 C-28.40449219 57.40152344 -28.96523438 56.70929688 -29.54296875 55.99609375 C-33.89329659 48.33825274 -34.68634508 40.45118797 -34.59375 31.78125 C-34.58021484 30.26615845 -34.58021484 30.26615845 -34.56640625 28.72045898 C-34.33734593 18.85257213 -33.16012682 10.94500785 -26.21875 3.53125 C-19.15355646 -3.12660633 -8.79240487 -3.89172019 0 0 Z " fill="#FDFDFD" transform="translate(574.15625,431.84375)"/>
<path d="M0 0 C2.59710804 1.29855402 5.12178003 2.60058834 7.64453125 4.0234375 C8.66063477 4.59578125 8.66063477 4.59578125 9.69726562 5.1796875 C10.39529297 5.57414063 11.09332031 5.96859375 11.8125 6.375 C12.84213867 6.95507812 12.84213867 6.95507812 13.89257812 7.546875 C18.2707591 10.01555604 22.63813275 12.50261718 27 15 C26.34 15.66 25.68 16.32 25 17 C22.69 16.01 20.38 15.02 18 14 C18 15.32 18 16.64 18 18 C16.35 17.67 14.7 17.34 13 17 C12.67 15.02 12.34 13.04 12 11 C11.01 11 10.02 11 9 11 C9 50.93 9 90.86 9 132 C10.98 132 12.96 132 15 132 C15 132.66 15 133.32 15 134 C12.48046875 135.69140625 12.48046875 135.69140625 9.1875 137.5625 C8.10855469 138.18253906 7.02960938 138.80257812 5.91796875 139.44140625 C3 141 3 141 0 142 C0 95.14 0 48.28 0 0 Z " fill="#24579B" transform="translate(101,518)"/>
<path d="M0 0 C1.4540625 0.0309375 1.4540625 0.0309375 2.9375 0.0625 C3.2675 1.0525 3.5975 2.0425 3.9375 3.0625 C2.2875 2.7325 0.6375 2.4025 -1.0625 2.0625 C-0.7325 3.0525 -0.4025 4.0425 -0.0625 5.0625 C0.02970979 6.77078774 0.06378544 8.48247813 0.06448364 10.19325256 C0.06730347 11.25466965 0.07012329 12.31608673 0.07302856 13.40966797 C0.07100433 14.57393311 0.0689801 15.73819824 0.06689453 16.93774414 C0.06864685 18.16391953 0.07039917 19.39009491 0.07220459 20.65342712 C0.07585518 24.01693446 0.07499462 27.38038041 0.0718255 30.74388433 C0.06929603 34.26101467 0.07164103 37.77814238 0.07321167 41.29527283 C0.0750314 47.20084098 0.07263194 53.10639663 0.06787109 59.01196289 C0.06242633 65.84491574 0.06419347 72.67783876 0.0696975 79.51079088 C0.0742312 85.37325708 0.07487799 91.23571428 0.07225883 97.09818166 C0.0706978 100.60147588 0.0704976 104.10475607 0.07379532 107.60804939 C0.07721254 111.51092825 0.07248009 115.41377351 0.06689453 119.31665039 C0.06891876 120.48293976 0.07094299 121.64922913 0.07302856 122.8508606 C0.07020874 123.90945786 0.06738892 124.96805511 0.06448364 126.05873108 C0.06410662 126.98215837 0.06372959 127.90558565 0.06334114 128.85699558 C-0.0625 131.0625 -0.0625 131.0625 -1.0625 133.0625 C-2.0525 133.0625 -3.0425 133.0625 -4.0625 133.0625 C-4.08582856 115.86911031 -4.10347896 98.67572553 -4.11431217 81.48232365 C-4.11947522 73.499685 -4.12651809 65.51705617 -4.13793945 57.53442383 C-4.14788602 50.57926201 -4.15435336 43.62410731 -4.15658849 36.66893858 C-4.15789565 32.98398073 -4.16098179 29.29904322 -4.16823006 25.61409187 C-4.1762434 21.50712292 -4.17649116 17.40018963 -4.17602539 13.29321289 C-4.17962067 12.06251068 -4.18321594 10.83180847 -4.18692017 9.56381226 C-4.1855455 8.45176926 -4.18417084 7.33972626 -4.18275452 6.19398499 C-4.18367631 5.22149339 -4.1845981 4.24900179 -4.18554783 3.24704075 C-3.99104164 -0.20614243 -3.5347428 0.07213761 0 0 Z " fill="#2953A3" transform="translate(107.0625,522.9375)"/>
<path d="M0 0 C3.04951395 1.52475697 5.36399506 2.92885326 8 5 C6.35 5.33 4.7 5.66 3 6 C2.67 49.56 2.34 93.12 2 138 C2.99 138 3.98 138 5 138 C5.33 137.01 5.66 136.02 6 135 C9.21284338 133.11420063 11.24633583 132 15 132 C15 132.66 15 133.32 15 134 C12.48046875 135.69140625 12.48046875 135.69140625 9.1875 137.5625 C8.10855469 138.18253906 7.02960938 138.80257812 5.91796875 139.44140625 C3 141 3 141 0 142 C0 95.14 0 48.28 0 0 Z " fill="#4A6794" transform="translate(101,518)"/>
<path d="M0 0 C1.01111343 0.00141495 2.02222687 0.0028299 3.0639801 0.00428772 C6.27315306 0.00985664 9.48225461 0.02240338 12.69140625 0.03515625 C14.87565003 0.04017527 17.05989491 0.04473747 19.24414062 0.04882812 C24.58075327 0.05981588 29.91732465 0.07652289 35.25390625 0.09765625 C34.92390625 1.08765625 34.59390625 2.07765625 34.25390625 3.09765625 C16.76390625 3.42765625 -0.72609375 3.75765625 -18.74609375 4.09765625 C-18.41609375 3.10765625 -18.08609375 2.11765625 -17.74609375 1.09765625 C-11.79930921 0.05921472 -6.02805089 -0.03207259 0 0 Z " fill="#383E46" transform="translate(858.74609375,416.90234375)"/>
<path d="M0 0 C2.31 0 4.62 0 7 0 C4.7591296 2.46210283 2.57187232 3.90684302 -0.375 5.4375 C-4.38002725 7.56129642 -8.32974403 9.75298456 -12.25390625 12.0234375 C-13.65406982 12.83276733 -13.65406982 12.83276733 -15.08251953 13.65844727 C-16.96965343 14.75177138 -18.85478665 15.84855688 -20.73779297 16.94897461 C-21.61709473 17.4569458 -22.49639648 17.96491699 -23.40234375 18.48828125 C-24.19116943 18.94759033 -24.97999512 19.40689941 -25.79272461 19.88012695 C-27.87588168 20.9370279 -29.71831055 21.54301159 -32 22 C-32 19 -32 19 -30.64453125 17.61328125 C-24.57852107 13.30628469 -24.57852107 13.30628469 -20 14 C-19.67 13.01 -19.34 12.02 -19 11 C-17.35 11 -15.7 11 -14 11 C-13.67 10.01 -13.34 9.02 -13 8 C-11.01276732 7.29618843 -9.01222047 6.6288189 -7 6 C-6.67 5.34 -6.34 4.68 -6 4 C-4.35 4 -2.7 4 -1 4 C-0.67 2.68 -0.34 1.36 0 0 Z " fill="#38598F" transform="translate(149,628)"/>
<path d="M0 0 C0.33 0 0.66 0 1 0 C2.47059383 17.96225327 2.09464603 35.99395748 2 54 C-1.16115776 52.63016497 -1.9927092 52.0109362 -4 49 C-4 48.01 -4 47.02 -4 46 C-4.66 46 -5.32 46 -6 46 C-5.67 44.68 -5.34 43.36 -5 42 C-3.68 44.31 -2.36 46.62 -1 49 C-0.67 32.83 -0.34 16.66 0 0 Z " fill="#919191" transform="translate(788,430)"/>
<path d="M0 0 C0.66 0.33 1.32 0.66 2 1 C1.42668945 1.32685791 0.85337891 1.65371582 0.26269531 1.99047852 C-15.40849573 10.92623412 -15.40849573 10.92623412 -31 20 C-31.99 19.34 -32.98 18.68 -34 18 C-32.68 18 -31.36 18 -30 18 C-29.67 17.01 -29.34 16.02 -29 15 C-27.01679982 13.96708324 -25.01652194 12.9662501 -23 12 C-22.67 11.34 -22.34 10.68 -22 10 C-21.01 9.67 -20.02 9.34 -19 9 C-16.97545816 7.76947765 -15.00980295 6.4650717 -13.03515625 5.15625 C-10.98636392 3.99225282 -9.28337465 3.51545487 -7 3 C-5.80375 2.46375 -4.6075 1.9275 -3.375 1.375 C-2.26125 0.92125 -1.1475 0.4675 0 0 Z " fill="#33568F" transform="translate(190,607)"/>
<path d="M0 0 C10.02578245 4.80434259 19.54487517 10.16006996 29 16 C28.67 16.99 28.34 17.98 28 19 C26.27473958 18.25130208 24.54947917 17.50260417 22.82421875 16.75390625 C21.24288979 16.10038058 19.62324594 15.54108198 18 15 C18 14.01 18 13.02 18 12 C17.37351563 11.90203125 16.74703125 11.8040625 16.1015625 11.703125 C15.28429687 11.55359375 14.46703125 11.4040625 13.625 11.25 C12.81289062 11.11078125 12.00078125 10.9715625 11.1640625 10.828125 C8.36413217 9.75667152 8.23988043 8.63974542 7 6 C5.07308367 4.67619661 5.07308367 4.67619661 2.875 3.75 C2.15054688 3.41484375 1.42609375 3.0796875 0.6796875 2.734375 C0.12539062 2.49203125 -0.42890625 2.2496875 -1 2 C-0.67 1.34 -0.34 0.68 0 0 Z " fill="#3F5F90" transform="translate(194,572)"/>
<path d="M0 0 C2.25195063 1.26747489 4.50155747 2.53882868 6.75 3.8125 C7.38421875 4.16892578 8.0184375 4.52535156 8.671875 4.89257812 C11.94804537 6.75248735 15.04985101 8.63839084 18 11 C17.01 11.495 17.01 11.495 16 12 C13.64018187 11.06421005 11.30368736 10.06652192 9 9 C9 10.32 9 11.64 9 13 C7.35 12.67 5.7 12.34 4 12 C3.979375 11.071875 3.95875 10.14375 3.9375 9.1875 C3.37155641 5.99303786 3.37155641 5.99303786 1.375 4.93359375 C-0.38218533 4.20025229 -2.19037549 3.59224075 -4 3 C-2.68 2.67 -1.36 2.34 0 2 C0 1.34 0 0.68 0 0 Z " fill="#335A99" transform="translate(110,523)"/>
<path d="M0 0 C8.23078108 3.94470614 16.1127908 8.41996353 24 13 C23.01 13.66 22.02 14.32 21 15 C19.68 14.34 18.36 13.68 17 13 C17 12.34 17 11.68 17 11 C15.4840625 10.62875 15.4840625 10.62875 13.9375 10.25 C9.86621646 9.10339362 6.59755594 7.20258527 3 5 C3 4.34 3 3.68 3 3 C2.01 2.67 1.02 2.34 0 2 C0 1.34 0 0.68 0 0 Z " fill="#3A5D8E" transform="translate(130,535)"/>
<path d="M0 0 C1.65 0.99 3.3 1.98 5 3 C4.67 4.32 4.34 5.64 4 7 C3.278125 6.649375 2.55625 6.29875 1.8125 5.9375 C-1.42462338 4.85845887 -2.78579214 4.95538244 -6 6 C-7.68029994 6.97691857 -9.34928604 7.97388051 -11 9 C-11.66 9 -12.32 9 -13 9 C-13 7.68 -13 6.36 -13 5 C-9.37 3.68 -5.74 2.36 -2 1 C-2 1.66 -2 2.32 -2 3 C-1.34 3 -0.68 3 0 3 C0 2.01 0 1.02 0 0 Z " fill="#565656" transform="translate(254,489)"/>
<path d="M0 0 C0.33 0 0.66 0 1 0 C1 2.64 1 5.28 1 8 C1.53625 7.79375 2.0725 7.5875 2.625 7.375 C5 7 5 7 8.0625 8.0625 C9.031875 8.371875 10.00125 8.68125 11 9 C11.99 8.34 12.98 7.68 14 7 C13.34 8.65 12.68 10.3 12 12 C10.56260487 12.02712066 9.12506137 12.04645067 7.6875 12.0625 C6.48673828 12.07990234 6.48673828 12.07990234 5.26171875 12.09765625 C3 12 3 12 0 11 C0 7.37 0 3.74 0 0 Z " fill="#646464" transform="translate(776,417)"/>
<path d="M0 0 C0.99 0.66 1.98 1.32 3 2 C2.01 2.66 1.02 3.32 0 4 C-0.72965366 6.56282742 -0.72965366 6.56282742 -1 9 C-0.34 9.33 0.32 9.66 1 10 C1 10.66 1 11.32 1 12 C-2.59391114 10.66511872 -5.75490696 9.03977277 -9 7 C-6.24479785 4.04070881 -3.53372712 1.96318174 0 0 Z " fill="#5E5E5E" transform="translate(137,684)"/>
<path d="M0 0 C3.96 0 7.92 0 12 0 C12 0.66 12 1.32 12 2 C11.01 2 10.02 2 9 2 C9 2.66 9 3.32 9 4 C8.34 4 7.68 4 7 4 C6.67 4.66 6.34 5.32 6 6 C6 5.34 6 4.68 6 4 C3.525 5.485 3.525 5.485 1 7 C0.67 6.67 0.34 6.34 0 6 C0 4.02 0 2.04 0 0 Z " fill="#4C4C4C" transform="translate(497,481)"/>
<path d="M0 0 C7.57142857 3 7.57142857 3 10 6 C8.68 6.33 7.36 6.66 6 7 C6 7.66 6 8.32 6 9 C4.35 8.67 2.7 8.34 1 8 C0.67 5.36 0.34 2.72 0 0 Z " fill="#2F5897" transform="translate(183,566)"/>
<path d="M0 0 C0.99 0.33 1.98 0.66 3 1 C2.34 1 1.68 1 1 1 C0.67 1.99 0.34 2.98 0 4 C0 2.68 0 1.36 0 0 Z M-4 1 C-2.68 2.32 -1.36 3.64 0 5 C-0.804375 5.2475 -1.60875 5.495 -2.4375 5.75 C-5.171081 6.72238859 -5.171081 6.72238859 -5.8125 9.125 C-5.874375 9.74375 -5.93625 10.3625 -6 11 C-6.99 10.67 -7.98 10.34 -9 10 C-9 9.01 -9 8.02 -9 7 C-9.66 7 -10.32 7 -11 7 C-11 6.01 -11 5.02 -11 4 C-10.01 4.495 -10.01 4.495 -9 5 C-8.67 4.67 -8.34 4.34 -8 4 C-7.01 3.67 -6.02 3.34 -5 3 C-4.67 2.34 -4.34 1.68 -4 1 Z M-15 7 C-13.68 7.33 -12.36 7.66 -11 8 C-11.99 8.33 -12.98 8.66 -14 9 C-14.33 8.34 -14.66 7.68 -15 7 Z " fill="#484848" transform="translate(949,500)"/>
<path d="M0 0 C0 0.66 0 1.32 0 2 C-0.99 2.495 -0.99 2.495 -2 3 C-2.65555119 5.52733235 -2.65555119 5.52733235 -3 8 C-9.0546875 8.9765625 -9.0546875 8.9765625 -11 9 C-11.66 8.34 -12.32 7.68 -13 7 C-11.21190303 5.82786955 -9.41940875 4.66244474 -7.625 3.5 C-6.62726563 2.8503125 -5.62953125 2.200625 -4.6015625 1.53125 C-2 0 -2 0 0 0 Z " fill="#F4FCFA" transform="translate(114,653)"/>
<path d="M0 0 C-1.875 5.875 -1.875 5.875 -3 7 C-2.34 7.66 -1.68 8.32 -1 9 C-1.99 9.33 -2.98 9.66 -4 10 C-7.1875 8.0625 -7.1875 8.0625 -10 6 C-7.35570758 3.077361 -4.105808 0 0 0 Z " fill="#5A5A5A" transform="translate(138,482)"/>
<path d="M0 0 C0 2.69979128 -0.24976446 4.44919917 -1 7 C-1.226875 7.845625 -1.45375 8.69125 -1.6875 9.5625 C-3.46279527 12.85947694 -5.61140533 13.60036307 -9 15 C-7.53205148 9.1282059 -4.26622657 4.26622657 0 0 Z " fill="#606060" transform="translate(919,427)"/>
<path d="M0 0 C1.79232337 0.30871122 3.58384321 0.62209064 5.375 0.9375 C6.87160156 1.19853516 6.87160156 1.19853516 8.3984375 1.46484375 C11 2 11 2 13 3 C12.67 3.99 12.34 4.98 12 6 C10.02 5.34 8.04 4.68 6 4 C5.67 4.66 5.34 5.32 5 6 C4.01 6.495 4.01 6.495 3 7 C3 6.01 3 5.02 3 4 C2.01 3.67 1.02 3.34 0 3 C0 2.01 0 1.02 0 0 Z " fill="#595959" transform="translate(960,416)"/>
<path d="M0 0 C1.79232337 0.30871122 3.58384321 0.62209064 5.375 0.9375 C6.87160156 1.19853516 6.87160156 1.19853516 8.3984375 1.46484375 C11 2 11 2 13 3 C12.67 3.99 12.34 4.98 12 6 C10.02 5.34 8.04 4.68 6 4 C5.34 5.32 4.68 6.64 4 8 C3.896875 7.360625 3.79375 6.72125 3.6875 6.0625 C3.460625 5.381875 3.23375 4.70125 3 4 C2.01 3.67 1.02 3.34 0 3 C0 2.01 0 1.02 0 0 Z " fill="#5A5A5A" transform="translate(488,416)"/>
<path d="M0 0 C0.99 0.33 1.98 0.66 3 1 C3 1.66 3 2.32 3 3 C3.66 3.33 4.32 3.66 5 4 C4.01 4 3.02 4 2 4 C2 4.66 2 5.32 2 6 C2.66 6.33 3.32 6.66 4 7 C0.5647952 9.29013653 -0.985331 9.17842973 -5 9 C-4.34 7.35 -3.68 5.7 -3 4 C-2.34 4 -1.68 4 -1 4 C-0.67 2.68 -0.34 1.36 0 0 Z " fill="#484848" transform="translate(573,502)"/>
<path d="M0 0 C0 0.99 0 1.98 0 3 C-0.69867188 3.24234375 -1.39734375 3.4846875 -2.1171875 3.734375 C-3.02726563 4.06953125 -3.93734375 4.4046875 -4.875 4.75 C-5.77992188 5.07484375 -6.68484375 5.3996875 -7.6171875 5.734375 C-10.32047018 7.17021695 -10.96706853 8.17427942 -12 11 C-12.66 11 -13.32 11 -14 11 C-14 10.34 -14 9.68 -14 9 C-15.32 9.33 -16.64 9.66 -18 10 C-18 9.34 -18 8.68 -18 8 C-14.01811282 6.28232318 -10.03520597 4.58962659 -6 3 C-6 2.34 -6 1.68 -6 1 C-3.92446352 0.4465236 -2.15634036 0 0 0 Z " fill="#7D7F7E" transform="translate(196,449)"/>
<path d="M0 0 C3.3 0 6.6 0 10 0 C10 0.66 10 1.32 10 2 C9.01 2 8.02 2 7 2 C7 2.66 7 3.32 7 4 C3.53846154 7 3.53846154 7 1 7 C0.67 4.69 0.34 2.38 0 0 Z " fill="#494949" transform="translate(971,481)"/>
<path d="M0 0 C0.66 0.33 1.32 0.66 2 1 C0.66529737 5.00410788 -1.55999303 5.70666202 -5 8 C-6.65583225 8.69313908 -8.32110979 9.36474424 -10 10 C-10.66 9.01 -11.32 8.02 -12 7 C-10.04754815 5.80285445 -8.08785003 4.61751926 -6.125 3.4375 C-5.03445312 2.77621094 -3.94390625 2.11492188 -2.8203125 1.43359375 C-1.88960937 0.96050781 -0.95890625 0.48742187 0 0 Z " fill="#E5F0F9" transform="translate(126,645)"/>
<path d="M0 0 C2.96404505 2.80804268 5.44499019 5.18315774 7 9 C4.57333205 10.21333397 2.66500278 10 0 10 C-1.125 3.375 -1.125 3.375 0 0 Z " fill="#585858" transform="translate(675,469)"/>
<path d="M0 0 C1.65 0 3.3 0 5 0 C2.21190445 2.97569363 -0.56414179 5.16048288 -4.0625 7.25 C-5.34833984 8.03117188 -5.34833984 8.03117188 -6.66015625 8.828125 C-9 10 -9 10 -12 10 C-12 9.34 -12 8.68 -12 8 C-10.35 7.67 -8.7 7.34 -7 7 C-7 6.34 -7 5.68 -7 5 C-6.01 4.67 -5.02 4.34 -4 4 C-3.67 3.34 -3.34 2.68 -3 2 C-2.01 2 -1.02 2 0 2 C0 1.34 0 0.68 0 0 Z " fill="#3B5C8F" transform="translate(212,592)"/>
<path d="M0 0 C0 0.66 0 1.32 0 2 C-2.5546875 3.7265625 -2.5546875 3.7265625 -5.875 5.625 C-6.96554688 6.25664063 -8.05609375 6.88828125 -9.1796875 7.5390625 C-12 9 -12 9 -14 9 C-14 8.01 -14 7.02 -14 6 C-12.68 6 -11.36 6 -10 6 C-9.67 5.01 -9.34 4.02 -9 3 C-5.78715662 1.11420063 -3.75366417 0 0 0 Z " fill="#3B5A90" transform="translate(116,650)"/>
<path d="M0 0 C0.99 0.33 1.98 0.66 3 1 C2.835 1.78375 2.67 2.5675 2.5 3.375 C1.9376293 5.88208039 1.9376293 5.88208039 2 8 C-3.75 6.25 -3.75 6.25 -6 4 C-5.01 3.34 -4.02 2.68 -3 2 C-2.34 2.33 -1.68 2.66 -1 3 C-0.67 2.01 -0.34 1.02 0 0 Z " fill="#575757" transform="translate(180,713)"/>
<path d="M0 0 C-2.38125464 2.38125464 -4.33857567 3.00186241 -7.5 4.125 C-8.4796875 4.47820313 -9.459375 4.83140625 -10.46875 5.1953125 C-13 6 -13 6 -15 6 C-15 5.34 -15 4.68 -15 4 C-14.01 3.67 -13.02 3.34 -12 3 C-11.67 2.34 -11.34 1.68 -11 1 C-7.33738131 -1.67652904 -4.26826553 -0.82082029 0 0 Z " fill="#595959" transform="translate(591,666)"/>
<path d="M0 0 C2.31 0 4.62 0 7 0 C7 0.99 7 1.98 7 3 C6.34 3 5.68 3 5 3 C4.67 3.99 4.34 4.98 4 6 C3.34 6 2.68 6 2 6 C1.67 7.65 1.34 9.3 1 11 C0.67 11 0.34 11 0 11 C0 7.37 0 3.74 0 0 Z " fill="#585A59" transform="translate(718,499)"/>
<path d="M0 0 C0 1.65 0 3.3 0 5 C-3.465 6.485 -3.465 6.485 -7 8 C-7 7.34 -7 6.68 -7 6 C-7.99 5.67 -8.98 5.34 -10 5 C-8.71186658 4.16121545 -7.41936744 3.32913217 -6.125 2.5 C-5.40570313 2.0359375 -4.68640625 1.571875 -3.9453125 1.09375 C-2 0 -2 0 0 0 Z " fill="#E4F1F9" transform="translate(178,616)"/>
<path d="M0 0 C0.66 0.33 1.32 0.66 2 1 C0.06730041 2.17460192 -1.87133313 3.33944472 -3.8125 4.5 C-4.89144531 5.1496875 -5.97039062 5.799375 -7.08203125 6.46875 C-10 8 -10 8 -13 8 C-13 7.01 -13 6.02 -13 5 C-12.154375 4.731875 -11.30875 4.46375 -10.4375 4.1875 C-7.9349434 3.32298045 -5.64432413 2.40676134 -3.25 1.3125 C-2.1775 0.879375 -1.105 0.44625 0 0 Z " fill="#415F96" transform="translate(190,607)"/>
<path d="M0 0 C3 0.3125 3 0.3125 6 1 C6.33 1.66 6.66 2.32 7 3 C-3.89 3.495 -3.89 3.495 -15 4 C-14.67 3.34 -14.34 2.68 -14 2 C-11.09375 1.62109375 -11.09375 1.62109375 -7.5 1.4375 C-3.43001233 1.58200531 -3.43001233 1.58200531 0 0 Z " fill="#2F3639" transform="translate(865,426)"/>
<path d="M0 0 C-0.969375 0.433125 -1.93875 0.86625 -2.9375 1.3125 C-6.27731765 2.7014861 -6.27731765 2.7014861 -7 6 C-10 7 -10 7 -12.1875 6.0625 C-12.785625 5.711875 -13.38375 5.36125 -14 5 C-4.375 -1.5625 -4.375 -1.5625 0 0 Z " fill="#6F7271" transform="translate(939,417)"/>
<path d="M0 0 C-0.63065757 3.21852831 -1.78020695 5.50801069 -3.5625 8.25 C-4.01753906 8.95640625 -4.47257813 9.6628125 -4.94140625 10.390625 C-5.29074219 10.92171875 -5.64007812 11.4528125 -6 12 C-6.66 11.34 -7.32 10.68 -8 10 C-7.690625 9.4225 -7.38125 8.845 -7.0625 8.25 C-5.92922397 6.0792179 -5.92922397 6.0792179 -5.5625 3.875 C-4.69398211 0.97994035 -2.96761441 0 0 0 Z " fill="#575757" transform="translate(930,578)"/>
<path d="M0 0 C3.62818943 0.09805917 4.94034926 0.94728539 7.6875 3.375 C10 6 10 6 12 9 C7.02790438 7.23570801 2.56561939 4.6060834 -2 2 C-1.34 1.34 -0.68 0.68 0 0 Z " fill="#DEEFF9" transform="translate(190,567)"/>
<path d="M0 0 C1.60781893 0.7631861 3.21113138 1.53587058 4.8125 2.3125 C5.70582031 2.74175781 6.59914062 3.17101562 7.51953125 3.61328125 C9.78931933 4.88221789 11.29248171 6.06556898 13 8 C10.6568787 7.74438677 8.32156597 7.40729228 6 7 C5.67 6.34 5.34 5.68 5 5 C2.47266765 4.34444881 2.47266765 4.34444881 0 4 C0 2.68 0 1.36 0 0 Z " fill="#355C8D" transform="translate(168,557)"/>
<path d="M0 0 C3.96 1.98 7.92 3.96 12 6 C11.67 6.99 11.34 7.98 11 9 C9.125 8.6875 9.125 8.6875 7 8 C6.34 7.01 5.68 6.02 5 5 C2.94074861 4.27617533 2.94074861 4.27617533 1 4 C1 3.34 1 2.68 1 2 C0.34 1.67 -0.32 1.34 -1 1 C-0.67 0.67 -0.34 0.34 0 0 Z " fill="#3B5B8F" transform="translate(154,549)"/>
<path d="M0 0 C0.66 0.33 1.32 0.66 2 1 C1.67 1.66 1.34 2.32 1 3 C0.01 3 -0.98 3 -2 3 C-1.67 3.99 -1.34 4.98 -1 6 C-2.65 6 -4.3 6 -6 6 C-6.33 6.66 -6.66 7.32 -7 8 C-7.99 7.34 -8.98 6.68 -10 6 C-8.3811004 4.96951963 -6.75467511 3.95085322 -5.125 2.9375 C-4.22007812 2.36902344 -3.31515625 1.80054688 -2.3828125 1.21484375 C-1.20332031 0.61349609 -1.20332031 0.61349609 0 0 Z " fill="#E3EEF6" transform="translate(206,599)"/>
<path d="M0 0 C0.66 0 1.32 0 2 0 C2 1.32 2 2.64 2 4 C2.99 4.33 3.98 4.66 5 5 C4.34 5 3.68 5 3 5 C3.33 5.99 3.66 6.98 4 8 C2.35 8.33 0.7 8.66 -1 9 C-0.67 6.03 -0.34 3.06 0 0 Z " fill="#626262" transform="translate(969,481)"/>
<path d="M0 0 C0.99 0.33 1.98 0.66 3 1 C2.01 3.31 1.02 5.62 0 8 C-1.32 7.34 -2.64 6.68 -4 6 C-2.25 1.125 -2.25 1.125 0 0 Z " fill="#F2F2F2" transform="translate(829,631)"/>
<path d="M0 0 C1.485 0.99 1.485 0.99 3 2 C3 2.66 3 3.32 3 4 C3.66 4.33 4.32 4.66 5 5 C4.01 6.98 3.02 8.96 2 11 C1.34 11 0.68 11 0 11 C0 7.37 0 3.74 0 0 Z " fill="#545454" transform="translate(618,628)"/>
<path d="M0 0 C-4.95 2.97 -4.95 2.97 -10 6 C-10.99 5.34 -11.98 4.68 -13 4 C-11.68 4 -10.36 4 -9 4 C-8.67 3.01 -8.34 2.02 -8 1 C-4.72679179 -1.25738497 -4.10538299 -1.02634575 0 0 Z " fill="#3E6091" transform="translate(169,621)"/>
<path d="M0 0 C3.1414436 1.83250877 6.22602027 3.63698023 9 6 C9 6.66 9 7.32 9 8 C4.69235185 6.43358249 0.93828536 4.31663844 -3 2 C-2.01 1.34 -1.02 0.68 0 0 Z " fill="#DFEDF9" transform="translate(167,553)"/>
<path d="M0 0 C2.31 0 4.62 0 7 0 C6.01 1.485 6.01 1.485 5 3 C4.01 3 3.02 3 2 3 C1.67 4.32 1.34 5.64 1 7 C0.34 7 -0.32 7 -1 7 C-1 6.01 -1 5.02 -1 4 C-1.66 3.67 -2.32 3.34 -3 3 C-2.01 3 -1.02 3 0 3 C0 2.01 0 1.02 0 0 Z " fill="#636363" transform="translate(947,497)"/>
<path d="M0 0 C2.31 0 4.62 0 7 0 C6.01 1.485 6.01 1.485 5 3 C4.01 3 3.02 3 2 3 C1.67 4.32 1.34 5.64 1 7 C0.34 7 -0.32 7 -1 7 C-1 6.01 -1 5.02 -1 4 C-1.66 3.67 -2.32 3.34 -3 3 C-2.01 3 -1.02 3 0 3 C0 2.01 0 1.02 0 0 Z " fill="#636363" transform="translate(475,497)"/>
<path d="M0 0 C0.66 0.33 1.32 0.66 2 1 C3.70363822 1.22622081 5.41328701 1.40888473 7.125 1.5625 C8.03507813 1.64628906 8.94515625 1.73007812 9.8828125 1.81640625 C10.58148437 1.87699219 11.28015625 1.93757813 12 2 C12 2.33 12 2.66 12 3 C10.75283203 3.19916016 10.75283203 3.19916016 9.48046875 3.40234375 C8.39378906 3.57894531 7.30710937 3.75554687 6.1875 3.9375 C5.10855469 4.11152344 4.02960937 4.28554688 2.91796875 4.46484375 C-0.04933356 4.93871921 -0.04933356 4.93871921 -3 6 C-3.33 5.01 -3.66 4.02 -4 3 C-3.01 2.67 -2.02 2.34 -1 2 C-0.67 1.34 -0.34 0.68 0 0 Z " fill="#595959" transform="translate(941,427)"/>
<path d="M0 0 C0.66 0.33 1.32 0.66 2 1 C2 3.64 2 6.28 2 9 C0.68 9 -0.64 9 -2 9 C-1.49396008 6.83125748 -1.00016187 5.00032373 0 3 C-0.66 2.67 -1.32 2.34 -2 2 C-1.34 2 -0.68 2 0 2 C0 1.34 0 0.68 0 0 Z " fill="#3C3E35" transform="translate(754,501)"/>
<path d="M0 0 C0.66 0.33 1.32 0.66 2 1 C-4 7 -4 7 -7.0625 7.0625 C-8.5165625 7.0315625 -8.5165625 7.0315625 -10 7 C-8.72070154 4.44140308 -7.55728932 4.13851266 -5 2.9375 C-2.30092276 1.75531476 -2.30092276 1.75531476 0 0 Z " fill="#818483" transform="translate(212,438)"/>
<path d="M0 0 C1.98 0.66 3.96 1.32 6 2 C6.33 3.65 6.66 5.3 7 7 C6.67 6.34 6.34 5.68 6 5 C4.35 5 2.7 5 1 5 C0.34 3.68 -0.32 2.36 -1 1 C-0.67 0.67 -0.34 0.34 0 0 Z " fill="#EFEFEF" transform="translate(489,432)"/>
<path d="M0 0 C0.99 0.66 1.98 1.32 3 2 C3 2.99 3 3.98 3 5 C1.1875 5.6875 1.1875 5.6875 -1 6 C-2.75 4.5625 -2.75 4.5625 -4 3 C-2.68 2.01 -1.36 1.02 0 0 Z " fill="#EEF7F7" transform="translate(189,609)"/>
<path d="M0 0 C4.455 1.98 4.455 1.98 9 4 C7 6 7 6 4 7 C3.67 6.01 3.34 5.02 3 4 C2.34 4 1.68 4 1 4 C0.67 2.68 0.34 1.36 0 0 Z " fill="#535353" transform="translate(1012,536)"/>
<path d="M0 0 C0.99 0.33 1.98 0.66 3 1 C3.20086443 4.71599191 3.1519437 5.77208445 1 9 C-0.76462683 5.91190305 -1 4.76687864 -1 1 C-0.67 0.67 -0.34 0.34 0 0 Z " fill="#595959" transform="translate(531,430)"/>
<path d="M0 0 C-1.32 1.65 -2.64 3.3 -4 5 C-4.99 4.67 -5.98 4.34 -7 4 C-7.99 4 -8.98 4 -10 4 C-7.16124653 -0.25813021 -4.8137938 -0.13010254 0 0 Z " fill="#656565" transform="translate(553,417)"/>
<path d="M0 0 C0 1.32 0 2.64 0 4 C-5.0625 5.6875 -5.0625 5.6875 -7 6 C-7.66 5.34 -8.32 4.68 -9 4 C-2.25 0 -2.25 0 0 0 Z " fill="#5D5D5D" transform="translate(327,642)"/>
<path d="M0 0 C0.33 0.99 0.66 1.98 1 3 C0.67 3.66 0.34 4.32 0 5 C-1.32 5 -2.64 5 -4 5 C-4.66 5.66 -5.32 6.32 -6 7 C-6 6.34 -6 5.68 -6 5 C-6.66 4.67 -7.32 4.34 -8 4 C-5.36 2.68 -2.72 1.36 0 0 Z " fill="#575757" transform="translate(924,537)"/>
<path d="M0 0 C2.34058637 2.12780579 3.70700306 4.11562221 5 7 C4.01 7.99 3.02 8.98 2 10 C0.39644899 6.49223216 -0.22036864 3.85645121 0 0 Z " fill="#EFEFEF" transform="translate(651,462)"/>
<path d="M0 0 C2.64 0 5.28 0 8 0 C7.67 0.99 7.34 1.98 7 3 C4.4375 4.1875 4.4375 4.1875 2 5 C1.34 4.34 0.68 3.68 0 3 C0 2.01 0 1.02 0 0 Z " fill="#555555" transform="translate(281,737)"/>
<path d="M0 0 C0.625 2.0625 0.625 2.0625 1 4 C0.01 4.495 0.01 4.495 -1 5 C-3.4750171 3.88568235 -5.67883419 2.41849022 -8 1 C-3 -1.5 -3 -1.5 0 0 Z " fill="#5B5B5B" transform="translate(150,698)"/>
<path d="M0 0 C3.8063457 0.67170806 7.35206816 1.72746564 11 3 C10.67 3.99 10.34 4.98 10 6 C6.00499382 4.6302836 3.19990508 2.74277578 0 0 Z " fill="#D5E7F6" transform="translate(176,561)"/>
<path d="M0 0 C3.8088684 0.67215325 7.41388869 1.53295446 11 3 C11.33 3.99 11.66 4.98 12 6 C8 4.66666667 4 3.33333333 0 2 C0 1.34 0 0.68 0 0 Z " fill="#285190" transform="translate(119,532)"/>
<path d="M0 0 C0.66 0 1.32 0 2 0 C1.67 1.32 1.34 2.64 1 4 C1.66 4.33 2.32 4.66 3 5 C2.42655063 7.86724686 2.1385485 8.8614515 0 11 C-0.19491452 9.54263913 -0.38069358 8.08405407 -0.5625 6.625 C-0.66691406 5.81289063 -0.77132812 5.00078125 -0.87890625 4.1640625 C-1 2 -1 2 0 0 Z " fill="#5B5B5B" transform="translate(522,467)"/>
<path d="M0 0 C2.83328987 2.83328987 3.7191375 4.35446828 5 8 C3.35 8.33 1.7 8.66 0 9 C0 6.03 0 3.06 0 0 Z " fill="#565656" transform="translate(755,430)"/>
<path d="M0 0 C0.99 0 1.98 0 3 0 C3.33 1.65 3.66 3.3 4 5 C1 7 1 7 -1.1875 6.625 C-1.785625 6.41875 -2.38375 6.2125 -3 6 C-2.01 5.67 -1.02 5.34 0 5 C0.33 4.34 0.66 3.68 1 3 C0.01 2.67 -0.98 2.34 -2 2 C-1.34 1.34 -0.68 0.68 0 0 Z " fill="#646866" transform="translate(227,429)"/>
<path d="M0 0 C0 2 0 2 -1.625 4.125 C-4.60465619 6.47736015 -6.29706315 6.33663062 -10 6 C-7.35570758 3.077361 -4.105808 0 0 0 Z " fill="#DAE8F6" transform="translate(114,653)"/>
<path d="M0 0 C1.41377341 2.63904371 2.37240135 5.07120629 3 8 C1.68 7.67 0.36 7.34 -1 7 C-1.33 5.02 -1.66 3.04 -2 1 C-1.34 0.67 -0.68 0.34 0 0 Z " fill="#545454" transform="translate(1017,584)"/>
<path d="M0 0 C2 1 2 1 3 3 C2.34 3 1.68 3 1 3 C1 7.29 1 11.58 1 16 C0.67 16 0.34 16 0 16 C-0.19389096 13.5211787 -0.38040123 11.04219069 -0.5625 8.5625 C-0.61857422 7.85544922 -0.67464844 7.14839844 -0.73242188 6.41992188 C-0.86190993 4.61572163 -0.93521608 2.80768048 -1 1 C-0.67 0.67 -0.34 0.34 0 0 Z " fill="#EFFBFC" transform="translate(100,515)"/>
<path d="M0 0 C0.99 0.495 0.99 0.495 2 1 C1.01 1.495 1.01 1.495 0 2 C0 1.34 0 0.68 0 0 Z M-2 2 C-1.34 2.33 -0.68 2.66 0 3 C-1.98 5.97 -1.98 5.97 -4 9 C-4.33 8.34 -4.66 7.68 -5 7 C-6.32 7.33 -7.64 7.66 -9 8 C-7.62209707 5.24419414 -5.62850007 4.51138754 -3 3 C-2.67 2.67 -2.34 2.34 -2 2 Z " fill="#E2E2E2" transform="translate(593,499)"/>
<path d="M0 0 C0.66 0.33 1.32 0.66 2 1 C1.67 2.32 1.34 3.64 1 5 C-1.64 5 -4.28 5 -7 5 C-6.67 4.34 -6.34 3.68 -6 3 C-4.68 3 -3.36 3 -2 3 C-2 2.34 -2 1.68 -2 1 C-1.34 0.67 -0.68 0.34 0 0 Z " fill="#767676" transform="translate(162,467)"/>
<path d="M0 0 C1.32 0 2.64 0 4 0 C4 0.66 4 1.32 4 2 C3.01 2.495 3.01 2.495 2 3 C2 3.99 2 4.98 2 6 C0.68 5.67 -0.64 5.34 -2 5 C-1.34 3.35 -0.68 1.7 0 0 Z " fill="#545454" transform="translate(443,431)"/>
<path d="M0 0 C-0.99 0.66 -1.98 1.32 -3 2 C-3.66 2.66 -4.32 3.32 -5 4 C-8.125 3.625 -8.125 3.625 -11 3 C-8.21756596 -1.17365106 -4.53441502 -0.22300402 0 0 Z " fill="#414645" transform="translate(944,417)"/>
<path d="M0 0 C0.99 0 1.98 0 3 0 C3.99 1.98 4.98 3.96 6 6 C5.01 6.33 4.02 6.66 3 7 C3 6.34 3 5.68 3 5 C2.34 5 1.68 5 1 5 C0.67 3.35 0.34 1.7 0 0 Z " fill="#535353" transform="translate(641,417)"/>
<path d="M0 0 C3.96 1.98 3.96 1.98 8 4 C7.01 4.99 6.02 5.98 5 7 C3.29115995 5.37660195 1.62553283 3.70680947 0 2 C0 1.34 0 0.68 0 0 Z " fill="#595959" transform="translate(227,672)"/>
<path d="M0 0 C0.66 0.33 1.32 0.66 2 1 C-2.30769231 5.92307692 -2.30769231 5.92307692 -5.8125 6.3125 C-6.8953125 6.1578125 -6.8953125 6.1578125 -8 6 C-5.38485683 3.87961365 -2.80362384 1.86908256 0 0 Z " fill="#DAEBF6" transform="translate(150,631)"/>
<path d="M0 0 C-0.66 0 -1.32 0 -2 0 C-2 1.32 -2 2.64 -2 4 C-1.34 4.33 -0.68 4.66 0 5 C-0.99 5.33 -1.98 5.66 -3 6 C-3 5.34 -3 4.68 -3 4 C-3.66 4 -4.32 4 -5 4 C-5.33 2.68 -5.66 1.36 -6 0 C-3.50907189 -1.24546405 -2.58919267 -0.7767578 0 0 Z " fill="#474747" transform="translate(591,443)"/>
<path d="M0 0 C0.66 0.33 1.32 0.66 2 1 C0.61918777 5.1424367 -1.59825558 6.32203099 -5 9 C-5.66 8.67 -6.32 8.34 -7 8 C-4.69 5.36 -2.38 2.72 0 0 Z " fill="#E3E3E3" transform="translate(1049,724)"/>
<path d="M0 0 C3.55780196 0.60990891 6.6828589 1.5783681 10 3 C9.67 3.66 9.34 4.32 9 5 C5.22454612 3.90931332 2.52956528 3.0916909 0 0 Z " fill="#DFEEF8" transform="translate(119,528)"/>
<path d="M0 0 C-2.3125 2.0625 -2.3125 2.0625 -5 4 C-5.99 3.67 -6.98 3.34 -8 3 C-5.45189726 -0.82215411 -4.39145359 -1.46381786 0 0 Z " fill="#545454" transform="translate(227,506)"/>
<path d="M0 0 C2.4375 0.75 2.4375 0.75 5 2 C5.33 3.32 5.66 4.64 6 6 C3.36 4.68 0.72 3.36 -2 2 C-1.34 1.34 -0.68 0.68 0 0 Z " fill="#545454" transform="translate(152,499)"/>
<path d="M0 0 C0.99 0.33 1.98 0.66 3 1 C2.67 2.32 2.34 3.64 2 5 C-0.475 4.01 -0.475 4.01 -3 3 C-2.01 2.01 -1.02 1.02 0 0 Z " fill="#E4EEF7" transform="translate(133,641)"/>
<path d="M0 0 C0.66 0 1.32 0 2 0 C2 0.66 2 1.32 2 2 C1.34 2 0.68 2 0 2 C-0.66 3.65 -1.32 5.3 -2 7 C-2.66 6.67 -3.32 6.34 -4 6 C-2.84826645 3.53199953 -1.95216435 1.95216435 0 0 Z M-6 6 C-5.34 6 -4.68 6 -4 6 C-4.33 6.66 -4.66 7.32 -5 8 C-5.33 7.34 -5.66 6.68 -6 6 Z " fill="#EEF9FB" transform="translate(154,629)"/>
<path d="M0 0 C1.7074998 1.28062485 3.37373596 2.61767557 5 4 C5 4.66 5 5.32 5 6 C3.35 6 1.7 6 0 6 C0 4.02 0 2.04 0 0 Z " fill="#5A5A5A" transform="translate(818,553)"/>
<path d="M0 0 C0.99 0.33 1.98 0.66 3 1 C0.6875 3.0625 0.6875 3.0625 -2 5 C-2.99 4.67 -3.98 4.34 -5 4 C-3.36587557 2.29159719 -2.13093906 1.06546953 0 0 Z " fill="#5B5B5B" transform="translate(207,515)"/>
<path d="M0 0 C0 0.66 0 1.32 0 2 C0.66 2.33 1.32 2.66 2 3 C-2.25061356 4.41687119 -4.71851625 3.19320039 -9 2 C-8.401875 1.855625 -7.80375 1.71125 -7.1875 1.5625 C-1.11111111 0 -1.11111111 0 0 0 Z " fill="#5D5D5D" transform="translate(468,507)"/>
<path d="M0 0 C0 0.99 0 1.98 0 3 C-1.98 3.66 -3.96 4.32 -6 5 C-6 3.68 -6 2.36 -6 1 C-3.92446352 0.4465236 -2.15634036 0 0 0 Z " fill="#707271" transform="translate(196,449)"/>
<path d="M0 0 C3.465 1.485 3.465 1.485 7 3 C7 3.33 7 3.66 7 4 C4.69 4.33 2.38 4.66 0 5 C-0.33 4.01 -0.66 3.02 -1 2 C-0.67 1.34 -0.34 0.68 0 0 Z " fill="#5B5B5B" transform="translate(278,433)"/>
<path d="M0 0 C0.86625 0.2784375 0.86625 0.2784375 1.75 0.5625 C4.20692525 1.04023546 5.64397534 0.75729364 8 0 C8.33 0.66 8.66 1.32 9 2 C7.35 2.66 5.7 3.32 4 4 C2.68 2.68 1.36 1.36 0 0 Z " fill="#565656" transform="translate(305,723)"/>
<path d="M0 0 C3 2 3 2 3.6875 5.125 C3.790625 6.07375 3.89375 7.0225 4 8 C3.01 8.495 3.01 8.495 2 9 C0.93347808 6.69631264 -0.06421005 4.35981813 -1 2 C-0.67 1.34 -0.34 0.68 0 0 Z " fill="#595959" transform="translate(881,706)"/>
<path d="M0 0 C2.475 0.99 2.475 0.99 5 2 C4.67 4.31 4.34 6.62 4 9 C2.47700477 6.06279492 1.19899698 3.0831351 0 0 Z " fill="#606060" transform="translate(768,703)"/>
<path d="M0 0 C0.99 1.32 1.98 2.64 3 4 C2.34 5.32 1.68 6.64 1 8 C0.01 7.01 -0.98 6.02 -2 5 C-1.34 3.35 -0.68 1.7 0 0 Z " fill="#585858" transform="translate(805,679)"/>
<path d="M0 0 C1.32 0.99 2.64 1.98 4 3 C1 5 1 5 -1.1875 4.625 C-1.785625 4.41875 -2.38375 4.2125 -3 4 C-2.01 2.68 -1.02 1.36 0 0 Z " fill="#3C5E93" transform="translate(119,645)"/>
<path d="M0 0 C0.66 0 1.32 0 2 0 C2 1.65 2 3.3 2 5 C0.68 5 -0.64 5 -2 5 C-2.33 4.01 -2.66 3.02 -3 2 C-2.01 1.67 -1.02 1.34 0 1 C0 0.67 0 0.34 0 0 Z " fill="#565656" transform="translate(194,520)"/>
<path d="M0 0 C0.99 0.33 1.98 0.66 3 1 C5.14255793 0.61067144 5.14255793 0.61067144 7 0 C7 0.66 7 1.32 7 2 C7.66 2.33 8.32 2.66 9 3 C5.23375329 4.25541557 3.62811066 3.37061958 0 2 C0 1.34 0 0.68 0 0 Z " fill="#565656" transform="translate(933,507)"/>
<path d="M0 0 C-0.66 1.32 -1.32 2.64 -2 4 C-2.99 4 -3.98 4 -5 4 C-5.66 3.01 -6.32 2.02 -7 1 C-4.57333205 -0.21333397 -2.66500278 0 0 0 Z " fill="#575757" transform="translate(661,465)"/>
<path d="M0 0 C2 3.75 2 3.75 2 6 C-0.97 5.67 -3.94 5.34 -7 5 C-3 3 -3 3 0 3 C0 2.01 0 1.02 0 0 Z " fill="#696969" transform="translate(682,424)"/>
<path d="M0 0 C4.5 2.25 4.5 2.25 6 6 C5.34 6.66 4.68 7.32 4 8 C2.68 5.36 1.36 2.72 0 0 Z " fill="#EAEAEA" transform="translate(648,424)"/>
<path d="M0 0 C0.99 1.32 1.98 2.64 3 4 C2.34 5.32 1.68 6.64 1 8 C-1 5 -1 5 -0.625 2.3125 C-0.41875 1.549375 -0.2125 0.78625 0 0 Z " fill="#565656" transform="translate(1052,712)"/>
<path d="M0 0 C0.66 0.33 1.32 0.66 2 1 C2 1.66 2 2.32 2 3 C0.02 3.66 -1.96 4.32 -4 5 C-4 4.01 -4 3.02 -4 2 C-2.125 0.9375 -2.125 0.9375 0 0 Z " fill="#DBEEF8" transform="translate(161,625)"/>
<path d="M0 0 C1.89213369 2.38573379 3.02391783 4.07175348 4 7 C2.35 7.33 0.7 7.66 -1 8 C-0.67 5.36 -0.34 2.72 0 0 Z " fill="#545454" transform="translate(1058,580)"/>
<path d="M0 0 C0.33 2.31 0.66 4.62 1 7 C-0.32 6.34 -1.64 5.68 -3 5 C-2.34 5 -1.68 5 -1 5 C-1.99 3.68 -2.98 2.36 -4 1 C-2 0 -2 0 0 0 Z " fill="#565656" transform="translate(142,480)"/>
<path d="M0 0 C2.0625 0.4375 2.0625 0.4375 4 1 C4 1.66 4 2.32 4 3 C4.33 3.66 4.66 4.32 5 5 C4.34 5.66 3.68 6.32 3 7 C1.68 5.02 0.36 3.04 -1 1 C-0.67 0.67 -0.34 0.34 0 0 Z " fill="#5E5E5E" transform="translate(579,434)"/>
</svg>
